# xmcd
#
# Track frame offsets: 
#        150
#        25297
#        74140
#        109079
#        155762
#        201112
#        230385
#
# Disc length: 3452 seconds
#
# Revision: 0
# Processed by: cddbd v1.5.2PL0 Copyright (c) Steve Scherf et al.
# Submitted via: ExactAudioCopyFreeDBPlugin 1.0
#
DISCID=610d7a07
DTITLE=Jim McCarty and Mystery Train - Live
DYEAR=2013
DGENRE=Blues
TTITLE0=Treat Me Right (Live)
TTITLE1=Temperature Is Rising (Live)
TTITLE2=Killing Floor (Live)
TTITLE3=The Thrill Is Gone (Live)
TTITLE4=Help Me (Live)
TTITLE5=Shake Your Money Maker (Live)
TTITLE6=Oh Well (Live)
EXTD=
EXTT0=
EXTT1=
EXTT2=
EXTT3=
EXTT4=
EXTT5=
EXTT6=
PLAYORDER=
